<svg xmlns="http://www.w3.org/2000/svg" viewBox="130 125 240 240" width="240" height="240" preserveAspectRatio="xMidYMid meet">
  <defs>
    <linearGradient id="linear-gradient" x1="201.04" y1="319.45" x2="344.74" y2="182.69" gradientUnits="userSpaceOnUse">
      <stop offset="0" stop-color="#6920ff"/>
      <stop offset="1" stop-color="#e584ff"/>
    </linearGradient>
    <linearGradient id="linear-gradient-2" x1="205.03" y1="190.95" x2="207.59" y2="188.51" gradientUnits="userSpaceOnUse">
      <stop offset="0" stop-color="#02c875"/>
      <stop offset="1" stop-color="#a4e46e"/>
    </linearGradient>
    <linearGradient id="linear-gradient-3" x1="155.56" y1="316.12" x2="256.39" y2="229.27" gradientUnits="userSpaceOnUse">
      <stop offset="0" stop-color="#2e0fbb" stop-opacity="0"/>
      <stop offset="0.17" stop-color="#2e0fbb" stop-opacity="0.14"/>
      <stop offset="0.53" stop-color="#2e0fbb" stop-opacity="0.49"/>
      <stop offset="1" stop-color="#2e0fbb"/>
    </linearGradient>
  </defs>
  
  <path d="M310.16,312.06l-27.1-30.23a59.68,59.68,0,0,1-31.95,10.82h-.61a60.14,60.14,0,1,1-3.84-120.22,11.25,11.25,0,0,1,1.92-.11,60.46,60.46,0,0,1,60.16,58.24,56.49,56.49,0,0,1-2.12,17.5l-22.25-24.88H242.82L290,276l27,30.13a41.76,41.76,0,0,0,4.85-4.75,100.74,100.74,0,0,0,27.3-68.55c0-1.11-.1-2.33-.1-3.44C347.36,173.84,300.45,130,245.34,132a100.58,100.58,0,0,0,3.24,201.11h3.24a98.48,98.48,0,0,0,30.33-5.66l27,30.13H350.8Z" fill="url(#linear-gradient)"/>
  <path d="M207.52,188.52,205,191.06c.83-.87,1.71-1.67,2.58-2.49Z" fill="url(#linear-gradient-2)"/>
  <path d="M149.11,246.93a100.65,100.65,0,0,0,84,84.85l49.95-49.95a59.68,59.68,0,0,1-31.95,10.82h-.61A60.16,60.16,0,0,1,204.64,191.4Z" fill="url(#linear-gradient-3)"/>
</svg>
